<svg xmlns="http://www.w3.org/2000/svg" viewBox="0 0 32 32" fill="white">
  <path d="M16.003 2.003c-7.732 0-14 6.268-14 14 0 2.742.795 5.295 2.164 7.452L2 30l6.69-2.12A13.94 13.94 0 0016.003 30c7.732 0 14-6.268 14-14s-6.268-14-14-14zm0 25.52a11.49 11.49 0 01-5.86-1.6l-.42-.25-3.97 1.26 1.26-3.87-.27-.44a11.48 11.48 0 1110.26 5.9zm6.33-8.61c-.35-.18-2.06-1.02-2.38-1.13-.32-.12-.55-.18-.78.18-.23.35-.9 1.13-1.1 1.36-.2.23-.41.26-.76.09-.35-.18-1.48-.54-2.82-1.72-1.04-.93-1.75-2.08-1.95-2.43-.2-.35-.02-.54.16-.72.16-.16.35-.41.52-.61.18-.2.23-.35.35-.58.12-.23.06-.44-.03-.61-.09-.18-.78-1.88-1.07-2.58-.28-.67-.57-.58-.78-.59-.2-.01-.44-.01-.67-.01-.23 0-.61.09-.93.44-.32.35-1.22 1.19-1.22 2.9 0 1.7 1.25 3.35 1.42 3.58.18.23 2.46 3.75 5.96 5.25.83.36 1.48.58 1.98.74.83.26 1.58.22 2.18.13.66-.1 2.06-.84 2.35-1.65.29-.81.29-1.51.2-1.65-.09-.14-.32-.23-.67-.41z"></path>
</svg>
